<?xml version="1.0" encoding="UTF-8" standalone="no"?>
<!DOCTYPE svg PUBLIC "-//W3C//DTD SVG 1.1//EN"
 "http://www.w3.org/Graphics/SVG/1.1/DTD/svg11.dtd">
<!-- Generated by graphviz version 2.47.0 (20210316.0004)
 -->
<!-- Title: dependencies Pages: 1 -->
<svg width="855pt" height="211pt"
 viewBox="0.00 0.00 855.00 211.00" xmlns="http://www.w3.org/2000/svg" xmlns:xlink="http://www.w3.org/1999/xlink">
<g id="graph0" class="graph" transform="scale(1 1) rotate(0) translate(4 207)">
<title>dependencies</title>
<polygon fill="white" stroke="transparent" points="-4,4 -4,-207 851,-207 851,4 -4,4"/>
<text text-anchor="start" x="402.51" y="-42.4" font-family="sans-serif" font-weight="bold" font-size="14.00">Legend</text>
<polygon fill="#ffffb3" stroke="transparent" points="189.5,-10 189.5,-30 209.5,-30 209.5,-10 189.5,-10"/>
<text text-anchor="start" x="213.13" y="-15.4" font-family="sans-serif" font-size="14.00"> &#160;Declarations</text>
<polygon fill="#8dd3c7" stroke="transparent" points="302.5,-10 302.5,-30 322.5,-30 322.5,-10 302.5,-10"/>
<text text-anchor="start" x="326.23" y="-15.4" font-family="sans-serif" font-size="14.00"> &#160;Module</text>
<polygon fill="#80b1d3" stroke="transparent" points="388.5,-10 388.5,-30 408.5,-30 408.5,-10 388.5,-10"/>
<text text-anchor="start" x="412.28" y="-15.4" font-family="sans-serif" font-size="14.00"> &#160;Bootstrap</text>
<polygon fill="#fdb462" stroke="transparent" points="485.5,-10 485.5,-30 505.5,-30 505.5,-10 485.5,-10"/>
<text text-anchor="start" x="509.17" y="-15.4" font-family="sans-serif" font-size="14.00"> &#160;Providers</text>
<polygon fill="#fb8072" stroke="transparent" points="581.5,-10 581.5,-30 601.5,-30 601.5,-10 581.5,-10"/>
<text text-anchor="start" x="605.23" y="-15.4" font-family="sans-serif" font-size="14.00"> &#160;Exports</text>
<g id="clust1" class="cluster">
<title>cluster_AppModule</title>
<polygon fill="none" stroke="black" stroke-dasharray="1,5" points="8,-70 8,-195 839,-195 839,-70 8,-70"/>
</g>
<g id="clust3" class="cluster">
<title>cluster_AppModule_imports</title>
<polygon fill="none" stroke="black" points="16,-78 16,-130 831,-130 831,-78 16,-78"/>
</g>
<!-- AuthModule -->
<g id="node1" class="node">
<title>AuthModule</title>
<polygon fill="#8dd3c7" stroke="black" points="822.55,-122 819.55,-126 798.55,-126 795.55,-122 735.45,-122 735.45,-86 822.55,-86 822.55,-122"/>
<text text-anchor="middle" x="779" y="-99.8" font-family="Times,serif" font-size="14.00">AuthModule</text>
</g>
<!-- AppModule -->
<g id="node8" class="node">
<title>AppModule</title>
<polygon fill="#8dd3c7" stroke="black" points="447.66,-187 444.66,-191 423.66,-191 420.66,-187 364.34,-187 364.34,-151 447.66,-151 447.66,-187"/>
<text text-anchor="middle" x="406" y="-164.8" font-family="Times,serif" font-size="14.00">AppModule</text>
</g>
<!-- AuthModule&#45;&gt;AppModule -->
<g id="edge1" class="edge">
<title>AuthModule&#45;&gt;AppModule</title>
<path fill="none" stroke="black" d="M779,-122.29C779,-144.21 779,-178 779,-178 779,-178 457.7,-178 457.7,-178"/>
<polygon fill="black" stroke="black" points="457.7,-174.5 447.7,-178 457.7,-181.5 457.7,-174.5"/>
</g>
<!-- CategoriasModule -->
<g id="node2" class="node">
<title>CategoriasModule</title>
<polygon fill="#8dd3c7" stroke="black" points="717.92,-122 714.92,-126 693.92,-126 690.92,-122 598.08,-122 598.08,-86 717.92,-86 717.92,-122"/>
<text text-anchor="middle" x="658" y="-99.8" font-family="Times,serif" font-size="14.00">CategoriasModule</text>
</g>
<!-- CategoriasModule&#45;&gt;AppModule -->
<g id="edge2" class="edge">
<title>CategoriasModule&#45;&gt;AppModule</title>
<path fill="none" stroke="black" d="M658,-122.11C658,-141.34 658,-169 658,-169 658,-169 457.9,-169 457.9,-169"/>
<polygon fill="black" stroke="black" points="457.9,-165.5 447.9,-169 457.9,-172.5 457.9,-165.5"/>
</g>
<!-- CidadesModule -->
<g id="node3" class="node">
<title>CidadesModule</title>
<polygon fill="#8dd3c7" stroke="black" points="580.15,-122 577.15,-126 556.15,-126 553.15,-122 475.85,-122 475.85,-86 580.15,-86 580.15,-122"/>
<text text-anchor="middle" x="528" y="-99.8" font-family="Times,serif" font-size="14.00">CidadesModule</text>
</g>
<!-- CidadesModule&#45;&gt;AppModule -->
<g id="edge3" class="edge">
<title>CidadesModule&#45;&gt;AppModule</title>
<path fill="none" stroke="black" d="M528,-122.03C528,-138.4 528,-160 528,-160 528,-160 457.99,-160 457.99,-160"/>
<polygon fill="black" stroke="black" points="457.99,-156.5 447.99,-160 457.99,-163.5 457.99,-156.5"/>
</g>
<!-- EstadosModule -->
<g id="node4" class="node">
<title>EstadosModule</title>
<polygon fill="#8dd3c7" stroke="black" points="457.6,-122 454.6,-126 433.6,-126 430.6,-122 354.4,-122 354.4,-86 457.6,-86 457.6,-122"/>
<text text-anchor="middle" x="406" y="-99.8" font-family="Times,serif" font-size="14.00">EstadosModule</text>
</g>
<!-- EstadosModule&#45;&gt;AppModule -->
<g id="edge4" class="edge">
<title>EstadosModule&#45;&gt;AppModule</title>
<path fill="none" stroke="black" d="M406,-122.11C406,-122.11 406,-140.99 406,-140.99"/>
<polygon fill="black" stroke="black" points="402.5,-140.99 406,-150.99 409.5,-140.99 402.5,-140.99"/>
</g>
<!-- StatusModule -->
<g id="node5" class="node">
<title>StatusModule</title>
<polygon fill="#8dd3c7" stroke="black" points="336.77,-122 333.77,-126 312.77,-126 309.77,-122 243.23,-122 243.23,-86 336.77,-86 336.77,-122"/>
<text text-anchor="middle" x="290" y="-99.8" font-family="Times,serif" font-size="14.00">StatusModule</text>
</g>
<!-- StatusModule&#45;&gt;AppModule -->
<g id="edge5" class="edge">
<title>StatusModule&#45;&gt;AppModule</title>
<path fill="none" stroke="black" d="M290,-122.03C290,-138.4 290,-160 290,-160 290,-160 354.12,-160 354.12,-160"/>
<polygon fill="black" stroke="black" points="354.12,-163.5 364.12,-160 354.12,-156.5 354.12,-163.5"/>
</g>
<!-- TiposModule -->
<g id="node6" class="node">
<title>TiposModule</title>
<polygon fill="#8dd3c7" stroke="black" points="224.94,-122 221.94,-126 200.94,-126 197.94,-122 133.06,-122 133.06,-86 224.94,-86 224.94,-122"/>
<text text-anchor="middle" x="179" y="-99.8" font-family="Times,serif" font-size="14.00">TiposModule</text>
</g>
<!-- TiposModule&#45;&gt;AppModule -->
<g id="edge6" class="edge">
<title>TiposModule&#45;&gt;AppModule</title>
<path fill="none" stroke="black" d="M179,-122.11C179,-141.34 179,-169 179,-169 179,-169 354.1,-169 354.1,-169"/>
<polygon fill="black" stroke="black" points="354.1,-172.5 364.1,-169 354.1,-165.5 354.1,-172.5"/>
</g>
<!-- UsersModule -->
<g id="node7" class="node">
<title>UsersModule</title>
<polygon fill="#8dd3c7" stroke="black" points="115.92,-122 112.92,-126 91.92,-126 88.92,-122 24.08,-122 24.08,-86 115.92,-86 115.92,-122"/>
<text text-anchor="middle" x="70" y="-99.8" font-family="Times,serif" font-size="14.00">UsersModule</text>
</g>
<!-- UsersModule&#45;&gt;AppModule -->
<g id="edge7" class="edge">
<title>UsersModule&#45;&gt;AppModule</title>
<path fill="none" stroke="black" d="M70,-122.29C70,-144.21 70,-178 70,-178 70,-178 354.12,-178 354.12,-178"/>
<polygon fill="black" stroke="black" points="354.12,-181.5 364.12,-178 354.12,-174.5 354.12,-181.5"/>
</g>
</g>
</svg>
